<?xml version="1.0" standalone="no"?>
<!DOCTYPE svg PUBLIC "-//W3C//DTD SVG 1.1//EN" "http://www.w3.org/Graphics/SVG/1.1/DTD/svg11.dtd"><svg height="461"
	node-id="1" sillyvg="true" template-height="461" template-width="476" version="1.1" viewBox="0 0 476 461"
	width="476" xmlns="http://www.w3.org/2000/svg" xmlns:xlink="http://www.w3.org/1999/xlink">
	<defs node-id="48"></defs>
	<path
		d="M 410.60 275.70 L 407.70 259.80 L 406.30 255.30 L 402.40 239.60 L 399.90 232.00 L 396.90 224.60 L 394.60 219.80 L 389.00 210.50 L 388.10 208.40 L 388.10 207.30 L 389.10 203.10 L 389.50 200.20 L 389.30 197.40 L 388.70 194.70 L 387.60 191.90 L 386.00 189.20 L 384.30 187.10 L 382.30 185.50 L 377.80 182.70 L 360.40 173.80 L 359.40 173.10 L 358.70 171.70 L 359.20 169.20 L 359.90 168.00 L 360.70 167.50 L 361.80 167.50 L 363.10 167.90 L 372.60 171.50 L 375.10 172.10 L 377.20 172.30 L 379.10 172.00 L 380.90 171.30 L 382.70 170.00 L 384.40 168.20 L 386.20 165.60 L 387.50 162.90 L 389.40 157.10 L 390.00 154.50 L 390.00 152.30 L 389.60 150.20 L 388.70 148.30 L 387.30 146.60 L 382.70 143.10 L 379.70 141.70 L 361.40 135.20 L 360.00 134.00 L 359.00 132.50 L 357.50 126.80 L 356.20 123.40 L 354.50 120.30 L 352.40 117.40 L 349.90 114.80 L 347.00 112.30 L 341.10 108.20 L 334.90 104.50 L 328.60 101.30 L 322.00 98.60 L 319.20 97.80 L 317.00 97.70 L 315.10 98.10 L 313.40 99.00 L 311.80 100.60 L 310.20 103.00 L 304.10 116.40 L 292.90 139.50 L 284.50 158.60 L 283.80 159.80 L 283.10 160.40 L 282.20 160.60 L 270.00 158.20 L 259.20 155.60 L 215.00 143.40 L 214.30 142.10 L 207.10 110.70 L 204.60 102.40 L 202.80 98.50 L 200.60 94.70 L 199.10 92.80 L 197.50 91.40 L 194.10 89.80 L 192.30 89.50 L 188.70 90.20 L 185.00 92.60 L 182.50 95.00 L 167.70 114.10 L 162.30 123.10 L 145.20 107.10 L 138.80 101.50 L 132.20 96.30 L 123.90 90.60 L 122.40 90.00 L 106.40 88.90 L 87.20 88.50 L 84.60 88.80 L 83.30 90.10 L 80.60 97.40 L 80.30 99.60 L 80.60 101.60 L 81.30 103.50 L 94.70 122.10 L 113.30 146.30 L 118.30 153.20 L 118.50 153.80 L 117.70 157.20 L 118.50 169.40 L 118.20 174.10 L 117.20 175.30 L 107.50 181.80 L 83.30 199.70 L 66.80 212.80 L 65.30 214.60 L 63.30 218.60 L 62.80 220.90 L 62.70 225.10 L 63.70 227.60 L 67.60 231.40 L 83.40 241.90 L 84.60 242.50 L 85.90 242.70 L 87.10 242.60 L 90.80 240.70 L 93.40 239.80 L 138.40 227.50 L 139.80 227.30 L 140.80 227.50 L 141.70 228.10 L 148.80 238.40 L 148.80 240.10 L 147.90 240.60 L 140.40 239.10 L 138.50 239.20 L 136.80 239.70 L 135.30 240.60 L 132.40 243.60 L 124.80 253.40 L 121.20 257.10 L 120.70 258.10 L 120.40 260.40 L 120.80 264.00 L 121.70 267.30 L 124.90 273.60 L 127.70 277.60 L 130.80 281.20 L 134.30 284.50 L 139.90 289.00 L 141.80 290.10 L 151.10 293.30 L 151.20 294.00 L 149.30 296.10 L 141.50 302.50 L 125.10 314.70 L 91.10 337.40 L 89.70 338.60 L 88.80 339.90 L 88.30 342.40 L 88.70 343.80 L 89.50 345.30 L 91.70 347.90 L 96.70 352.40 L 104.50 357.20 L 109.50 359.60 L 114.60 361.40 L 119.80 362.70 L 125.10 363.50 L 130.60 363.90 L 136.10 363.80 L 144.70 363.00 L 147.30 363.40 L 149.70 364.20 L 152.30 365.70 L 183.30 384.70 L 185.50 385.80 L 187.50 386.30 L 189.40 386.30 L 193.10 385.10 L 197.80 381.60 L 200.40 379.10 L 204.90 373.50 L 206.90 369.40 L 207.30 367.10 L 207.10 362.50 L 205.40 358.30 L 204.10 356.50 L 202.40 355.00 L 193.70 349.50 L 197.30 347.30 L 199.50 346.70 L 202.60 347.00 L 204.40 347.80 L 247.30 371.20 L 249.40 371.70 L 251.30 371.80 L 253.20 371.50 L 257.20 369.50 L 260.40 366.90 L 266.00 361.00 L 269.40 356.30 L 272.20 351.30 L 273.70 347.90 L 274.80 344.20 L 275.50 340.30 L 275.60 338.50 L 274.80 335.50 L 272.90 333.10 L 255.10 322.90 L 260.70 319.80 L 262.60 319.10 L 264.50 319.00 L 266.70 319.40 L 290.50 327.70 L 302.50 331.30 L 315.70 334.70 L 317.00 336.00 L 318.40 340.70 L 319.80 344.00 L 321.60 346.80 L 323.90 349.40 L 326.50 351.70 L 329.60 353.80 L 335.30 356.40 L 338.20 357.30 L 342.80 357.90 L 347.50 358.00 L 351.80 357.50 L 355.80 356.40 L 359.60 354.80 L 363.20 352.60 L 366.40 350.10 L 369.10 347.10 L 372.20 342.00 L 373.20 339.30 L 374.30 334.50 L 375.80 332.00 L 376.90 331.10 L 384.90 327.30 L 393.00 322.90 L 398.80 318.30 L 401.40 315.60 L 403.60 312.50 L 405.60 308.90 L 407.90 303.50 L 409.70 298.00 L 410.80 292.60 L 411.30 287.00 L 411.20 281.40 L 410.60 275.70 Z M 182.90 267.70 L 181.40 269.60 L 174.90 275.20 L 171.40 277.60 L 170.90 277.40 L 170.90 276.60 L 173.20 272.50 L 175.20 267.30 L 175.30 264.50 L 174.60 263.50 L 176.00 263.50 L 179.00 264.60 L 181.80 266.20 L 182.70 267.10 L 182.90 267.70 Z M 267.10 310.60 L 259.60 313.20 L 252.30 316.10 L 220.50 330.50 L 203.00 338.00 L 191.10 342.60 L 179.20 346.90 L 167.00 350.70 L 154.10 354.30 L 147.50 355.70 L 140.90 356.70 L 132.00 357.20 L 123.00 356.50 L 118.70 355.70 L 114.40 354.40 L 110.20 352.80 L 99.40 346.80 L 98.40 345.30 L 96.20 343.10 L 96.00 342.30 L 96.20 341.60 L 111.00 331.90 L 112.40 330.30 L 115.90 328.60 L 118.80 326.80 L 135.50 315.10 L 146.20 307.20 L 156.70 298.90 L 172.10 286.20 L 188.40 272.10 L 190.70 271.60 L 192.10 271.80 L 202.30 275.10 L 239.40 290.80 L 252.80 296.10 L 256.90 298.30 L 266.20 304.30 L 267.50 305.70 L 269.00 308.50 L 268.90 309.30 L 268.40 310.00 L 267.10 310.60 Z"
		fill="#2e2425" fill-rule="nonzero" node-id="52" stroke="none" target-height="297.8" target-width="348.59998"
		target-x="62.7" target-y="88.5"></path>
	<path
		d="M 406.90 279.30 L 406.50 273.80 L 405.50 268.40 L 404.00 263.20 L 398.60 247.80 L 394.80 235.40 L 391.90 227.20 L 390.70 224.80 L 389.60 223.50 L 390.90 233.70 L 390.60 238.40 L 390.00 239.50 L 380.90 224.70 L 380.60 222.50 L 381.20 219.30 L 380.90 213.60 L 379.40 208.20 L 377.20 204.40 L 373.00 200.20 L 368.50 196.40 L 363.70 193.00 L 358.50 190.00 L 346.10 184.10 L 330.10 178.40 L 320.30 175.60 L 300.40 170.80 L 261.10 162.10 L 234.90 155.10 L 201.30 145.70 L 188.80 141.60 L 176.50 135.90 L 175.40 136.00 L 179.40 140.10 L 184.50 144.40 L 184.90 145.20 L 184.80 146.10 L 184.20 147.20 L 179.70 152.70 L 175.00 157.90 L 169.90 162.80 L 163.90 167.90 L 145.50 165.80 L 124.70 162.90 L 124.20 163.10 L 124.00 163.60 L 124.20 165.90 L 126.60 176.70 L 130.50 186.90 L 132.90 191.80 L 136.50 198.00 L 142.30 204.30 L 142.90 205.40 L 149.10 221.20 L 149.30 223.40 L 148.80 224.10 L 145.90 225.30 L 145.60 226.10 L 152.00 236.50 L 156.50 242.40 L 168.10 252.50 L 177.30 259.50 L 182.40 262.60 L 207.30 271.60 L 231.50 281.30 L 247.10 288.70 L 254.70 292.80 L 263.30 298.00 L 271.30 304.20 L 272.60 305.90 L 273.50 307.80 L 273.80 309.90 L 273.60 312.00 L 272.80 314.00 L 271.60 315.80 L 299.40 324.70 L 308.80 327.30 L 322.00 330.20 L 335.30 331.70 L 341.90 331.90 L 348.50 331.70 L 355.10 330.90 L 361.70 329.60 L 375.10 325.40 L 381.50 322.80 L 385.70 320.70 L 389.60 318.30 L 393.30 315.40 L 397.20 311.60 L 400.40 307.60 L 403.00 303.40 L 405.00 299.10 L 406.10 295.50 L 406.90 291.70 L 407.30 287.80 L 407.30 283.70 L 406.90 279.30 Z"
		fill="#f4f4f5" fill-rule="nonzero" node-id="54" stroke="none" target-height="196" target-width="283.3"
		target-x="124" target-y="135.9"></path>
	<path
		d="M 99.50 347.40 L 94.60 342.70 L 94.50 342.10 L 94.80 341.60 L 123.40 322.80 L 147.80 304.90 L 161.60 294.00 L 189.50 270.40 L 190.90 270.50 L 200.20 273.50 L 209.40 276.90 L 234.50 287.80 L 249.40 293.70 L 256.80 297.30 L 263.90 301.50 L 267.30 304.20 L 268.70 305.80 L 270.00 308.90 L 270.00 309.80 L 269.70 310.50 L 256.10 315.30 L 219.20 332.00 L 193.80 342.60 L 180.90 347.20 L 159.60 353.70 L 145.90 356.90 L 134.60 358.10 L 128.60 358.00 L 122.80 357.30 L 117.20 356.10 L 113.10 354.70 L 105.20 351.00 L 99.50 347.40 Z"
		fill="#f4f4f5" fill-rule="nonzero" node-id="56" stroke="none" target-height="87.70001" target-width="175.5"
		target-x="94.5" target-y="270.4"></path>
	<path
		d="M 289.40 161.90 L 315.90 105.00 L 317.00 103.10 L 318.10 102.30 L 320.00 102.10 L 330.40 106.90 L 339.10 112.10 L 344.80 116.80 L 349.00 122.30 L 350.70 125.30 L 352.00 128.50 L 352.90 132.00 L 353.50 135.70 L 355.00 153.60 L 355.20 162.50 L 355.00 171.50 L 353.90 180.50 L 353.50 180.70 L 352.70 180.50 L 345.90 177.50 L 332.20 172.60 L 321.60 169.60 L 289.40 161.90 Z"
		fill="#f4f4f5" fill-rule="nonzero" node-id="58" stroke="none" target-height="78.6" target-width="65.80002"
		target-x="289.4" target-y="102.1"></path>
	<path
		d="M 85.30 228.40 L 83.80 227.80 L 80.00 224.20 L 71.70 217.90 L 70.30 216.30 L 69.90 215.40 L 70.10 214.90 L 71.90 213.00 L 91.90 197.60 L 106.20 187.80 L 116.60 181.30 L 117.60 181.20 L 118.50 181.70 L 137.60 204.40 L 140.10 207.70 L 140.40 209.00 L 140.10 209.50 L 85.30 228.40 Z"
		fill="#f4f4f5" fill-rule="nonzero" node-id="60" stroke="none" target-height="47.199997" target-width="70.49999"
		target-x="69.9" target-y="181.2"></path>
	<path
		d="M 211.70 142.70 L 211.20 143.40 L 210.40 143.60 L 208.30 143.20 L 170.70 129.10 L 167.50 127.40 L 166.60 126.20 L 166.30 125.40 L 167.00 123.00 L 171.40 115.00 L 176.20 107.30 L 179.10 103.80 L 187.60 95.20 L 189.40 93.80 L 191.10 93.10 L 192.60 93.00 L 194.10 93.40 L 195.60 94.30 L 197.20 96.10 L 198.90 98.90 L 201.40 105.00 L 211.70 142.70 Z"
		fill="#f4f4f5" fill-rule="nonzero" node-id="62" stroke="none" target-height="50.600006" target-width="45.399994"
		target-x="166.3" target-y="93"></path>
	<path
		d="M 140.40 257.50 L 135.50 255.30 L 128.70 254.10 L 128.60 253.60 L 129.20 252.60 L 135.50 244.70 L 138.20 244.10 L 143.80 244.40 L 150.20 246.30 L 153.70 248.10 L 160.40 252.60 L 163.40 255.20 L 168.30 261.50 L 170.50 264.90 L 171.10 266.30 L 171.10 267.60 L 170.10 270.00 L 164.90 278.10 L 162.70 280.50 L 161.70 280.30 L 161.30 279.80 L 158.40 273.80 L 155.70 269.70 L 152.50 266.00 L 149.00 262.80 L 145.00 259.90 L 140.40 257.50 Z"
		fill="#656565" fill-rule="nonzero" node-id="64" stroke="none" target-height="36.399994" target-width="42.5"
		target-x="128.6" target-y="244.1"></path>
	<path
		d="M 151.50 362.00 L 163.10 358.90 L 185.80 351.70 L 186.90 351.40 L 188.60 351.70 L 196.20 356.20 L 192.30 357.30 L 188.90 358.90 L 186.10 360.90 L 183.70 363.20 L 181.80 366.00 L 180.40 369.10 L 179.40 372.60 L 178.60 378.40 L 178.10 378.50 L 176.80 377.80 L 151.50 362.00 Z"
		fill="#656565" fill-rule="nonzero" node-id="66" stroke="none" target-height="27.100006" target-width="44.699997"
		target-x="151.5" target-y="351.4"></path>
	<path
		d="M 88.30 235.80 L 87.10 235.90 L 86.40 235.50 L 85.90 233.00 L 86.10 232.30 L 86.70 231.60 L 90.50 229.30 L 141.00 213.30 L 141.80 213.50 L 142.40 214.10 L 144.60 219.60 L 144.50 220.50 L 143.10 221.60 L 135.00 224.50 L 128.70 226.40 L 95.70 234.70 L 88.30 235.80 Z"
		fill="#f4f4f5" fill-rule="nonzero" node-id="68" stroke="none" target-height="22.59999" target-width="58.700005"
		target-x="85.9" target-y="213.3"></path>
	<path
		d="M 248.30 364.00 L 249.00 360.80 L 251.50 354.30 L 256.00 347.20 L 259.00 343.50 L 263.60 339.10 L 267.40 336.50 L 269.80 336.00 L 271.00 336.40 L 271.80 337.20 L 272.10 338.30 L 271.90 340.80 L 270.80 345.10 L 269.40 349.20 L 267.60 352.90 L 265.50 356.40 L 263.00 359.60 L 260.10 362.50 L 256.80 365.30 L 253.10 367.80 L 251.50 368.50 L 250.30 368.60 L 249.50 368.30 L 248.90 367.60 L 248.40 366.20 L 248.30 364.00 Z"
		fill="#656565" fill-rule="nonzero" node-id="70" stroke="none" target-height="32.600006" target-width="23.800003"
		target-x="248.3" target-y="336"></path>
	<path
		d="M 203.10 365.40 L 202.80 367.90 L 202.00 370.60 L 200.70 373.20 L 197.20 378.10 L 195.20 380.10 L 193.00 381.60 L 191.00 382.50 L 189.30 382.80 L 186.50 382.30 L 185.30 381.50 L 183.50 379.50 L 182.60 376.80 L 183.40 372.10 L 184.40 369.20 L 185.80 366.50 L 187.60 364.00 L 189.80 361.80 L 192.50 359.80 L 195.90 358.40 L 198.30 358.50 L 199.60 359.00 L 200.80 359.80 L 202.20 361.90 L 203.10 365.40 Z"
		fill="#656565" fill-rule="nonzero" node-id="72" stroke="none" target-height="24.399994" target-width="20.5"
		target-x="182.6" target-y="358.4"></path>
	<path
		d="M 345.30 352.30 L 338.80 351.50 L 335.80 350.60 L 332.90 349.30 L 330.40 347.60 L 328.10 345.70 L 326.10 343.50 L 324.50 341.10 L 322.70 337.10 L 322.80 335.80 L 323.40 335.40 L 327.50 335.90 L 329.00 336.60 L 334.70 343.30 L 338.60 345.90 L 341.50 346.80 L 344.70 347.30 L 348.20 347.20 L 351.70 346.60 L 354.70 345.60 L 357.40 344.00 L 359.80 342.00 L 361.90 339.40 L 364.30 334.90 L 366.30 333.70 L 367.40 333.50 L 368.90 334.00 L 369.00 334.40 L 368.40 336.60 L 367.20 339.60 L 365.60 342.40 L 363.50 344.80 L 361.20 347.00 L 358.50 348.80 L 355.50 350.30 L 352.30 351.40 L 348.90 352.10 L 345.30 352.30 Z"
		fill="#646464" fill-rule="nonzero" node-id="74" stroke="none" target-height="18.799988" target-width="46.299988"
		target-x="322.7" target-y="333.5"></path>
	<path
		d="M 375.80 167.20 L 374.40 167.00 L 373.20 166.50 L 372.30 165.70 L 370.90 162.70 L 370.40 158.40 L 370.70 155.00 L 372.30 149.40 L 374.30 146.30 L 375.50 145.40 L 376.70 145.10 L 379.90 146.40 L 383.40 148.60 L 385.20 151.30 L 385.60 152.80 L 385.60 154.80 L 385.00 157.40 L 383.60 160.50 L 381.70 163.60 L 379.30 166.00 L 377.80 166.80 L 375.80 167.20 Z"
		fill="#656464" fill-rule="nonzero" node-id="76" stroke="none" target-height="22.09999" target-width="15.200012"
		target-x="370.4" target-y="145.1"></path>
	<path
		d="M 159.00 286.50 L 158.00 287.80 L 155.60 289.50 L 152.90 289.90 L 146.60 287.70 L 142.40 285.50 L 138.50 283.10 L 135.00 280.20 L 131.80 277.00 L 129.00 273.40 L 126.60 269.30 L 124.60 264.60 L 124.30 261.60 L 124.60 260.30 L 126.20 258.30 L 128.70 257.20 L 130.10 257.00 L 135.00 258.10 L 138.00 259.40 L 144.80 263.60 L 153.40 270.80 L 157.20 275.60 L 158.50 278.30 L 159.20 281.00 L 159.40 283.70 L 159.00 286.50 Z"
		fill="#646464" fill-rule="nonzero" node-id="78" stroke="none" target-height="32.899994" target-width="35.09999"
		target-x="124.3" target-y="257"></path>
	<path
		d="M 372.40 143.60 L 369.20 148.40 L 367.50 153.40 L 367.10 156.80 L 367.10 160.40 L 367.70 164.30 L 360.50 162.30 L 359.50 161.20 L 360.00 150.70 L 359.30 140.20 L 359.50 139.50 L 360.40 139.20 L 361.50 139.50 L 369.80 142.40 L 372.40 143.60 Z"
		fill="#646464" fill-rule="nonzero" node-id="80" stroke="none" target-height="25.100006" target-width="13.100006"
		target-x="359.3" target-y="139.2"></path>
	<path
		d="M 358.70 177.50 L 374.50 187.50 L 375.10 188.30 L 375.30 190.00 L 374.30 191.80 L 373.50 192.10 L 366.00 187.00 L 357.90 182.90 L 357.30 181.90 L 357.30 180.90 L 357.90 178.70 L 358.70 177.50 Z"
		fill="#646364" fill-rule="nonzero" node-id="82" stroke="none" target-height="14.600006" target-width="18"
		target-x="357.3" target-y="177.5"></path>
	<path
		d="M 68.00 220.10 L 77.90 227.80 L 79.50 229.40 L 80.40 231.00 L 81.10 234.90 L 75.30 231.60 L 68.30 226.80 L 66.90 225.40 L 66.50 222.70 L 67.20 220.90 L 68.00 220.10 Z"
		fill="#f1f0f1" fill-rule="nonzero" node-id="84" stroke="none" target-height="14.799988" target-width="14.599998"
		target-x="66.5" target-y="220.1"></path>
	<path
		d="M 336.20 337.10 L 341.40 337.20 L 346.20 336.80 L 356.80 335.40 L 357.20 336.20 L 357.10 336.60 L 354.60 339.00 L 352.70 340.30 L 350.50 341.20 L 348.20 341.70 L 345.80 341.70 L 343.30 341.30 L 340.90 340.40 L 338.60 339.00 L 336.20 337.10 Z"
		fill="#656363" fill-rule="nonzero" node-id="86" stroke="none" target-height="6.3000183" target-width="21"
		target-x="336.2" target-y="335.4"></path>
	<path
		d="M 380.70 190.90 L 383.90 193.50 L 385.70 196.40 L 385.70 198.90 L 384.40 202.80 L 381.70 200.80 L 380.10 199.10 L 379.30 197.50 L 379.00 196.00 L 379.30 193.50 L 380.70 190.90 Z"
		fill="#636463" fill-rule="nonzero" node-id="88" stroke="none" target-height="11.900009" target-width="6.700012"
		target-x="379" target-y="190.9"></path>
	<path
		d="M 254.90 327.00 L 253.20 325.70 L 251.60 325.00 L 249.90 324.90 L 248.10 325.20 L 242.20 328.20 L 205.90 344.50 L 244.20 364.90 L 245.30 359.90 L 246.90 355.30 L 248.90 350.90 L 251.30 346.90 L 254.10 343.10 L 257.30 339.50 L 261.00 336.20 L 265.10 333.00 L 260.00 329.70 L 254.90 327.00 Z"
		fill="#656565" fill-rule="nonzero" node-id="90" stroke="none" target-height="40" target-width="59.200012"
		target-x="205.9" target-y="324.9"></path>
	<path
		d="M 68.00 220.10 L 67.10 222.70 L 67.00 225.50 L 66.20 224.20 L 66.10 222.90 L 66.80 219.90 L 67.50 219.80 L 68.00 220.10 Z"
		fill="#3d3334" fill-rule="nonzero" node-id="92" stroke="none" target-height="5.699997" target-width="1.9000015"
		target-x="66.1" target-y="219.8"></path>
	<path
		d="M 379.00 229.10 L 388.20 244.40 L 386.00 249.50 L 384.20 252.90 L 381.90 256.00 L 379.10 258.80 L 373.50 263.00 L 367.60 267.00 L 366.00 267.60 L 364.80 266.40 L 359.40 256.70 L 358.90 254.90 L 359.30 254.30 L 365.60 249.90 L 370.30 245.30 L 373.30 241.90 L 375.80 238.20 L 377.20 235.50 L 379.00 229.10 Z"
		fill="#2c2223" fill-rule="nonzero" node-id="94" stroke="none" target-height="38.5" target-width="29.300018"
		target-x="358.9" target-y="229.1"></path>
	<path
		d="M 350.10 274.50 L 349.10 274.30 L 348.50 273.30 L 345.80 267.80 L 342.70 262.50 L 342.40 261.00 L 343.70 260.30 L 354.40 257.00 L 355.30 257.30 L 355.70 257.80 L 362.00 269.70 L 361.40 270.30 L 356.00 272.80 L 350.10 274.50 Z"
		fill="#2c2223" fill-rule="nonzero" node-id="96" stroke="none" target-height="17.5" target-width="19.600006"
		target-x="342.4" target-y="257"></path>
	<path
		d="M 345.60 275.40 L 336.40 276.20 L 335.20 276.10 L 334.30 275.50 L 327.50 265.20 L 327.00 264.00 L 327.00 263.30 L 327.50 262.80 L 336.40 261.80 L 337.70 261.90 L 338.60 262.90 L 345.60 275.40 Z"
		fill="#2d2324" fill-rule="nonzero" node-id="98" stroke="none" target-height="14.400024" target-width="18.600006"
		target-x="327" target-y="261.8"></path>
	<path
		d="M 287.50 271.90 L 276.50 268.90 L 275.20 268.20 L 274.70 266.60 L 274.40 258.10 L 274.60 257.50 L 275.00 257.20 L 276.30 257.40 L 285.60 259.80 L 287.00 260.40 L 287.50 261.90 L 287.50 271.90 Z"
		fill="#2d2324" fill-rule="nonzero" node-id="100" stroke="none" target-height="14.699982"
		target-width="13.100006" target-x="274.4" target-y="257.2"></path>
	<path
		d="M 302.50 268.40 L 302.70 271.30 L 302.40 273.60 L 301.20 274.30 L 296.80 273.80 L 292.60 272.90 L 291.40 271.80 L 291.00 269.50 L 291.10 266.70 L 291.60 262.80 L 292.40 261.70 L 294.50 261.50 L 300.90 261.90 L 302.30 263.00 L 302.70 264.20 L 302.50 268.40 Z"
		fill="#2d2324" fill-rule="nonzero" node-id="102" stroke="none" target-height="12.799988"
		target-width="11.700012" target-x="291" target-y="261.5"></path>
	<path
		d="M 261.40 263.40 L 252.30 259.50 L 251.40 258.80 L 251.40 248.60 L 251.90 248.00 L 252.80 248.30 L 260.10 251.80 L 261.10 252.90 L 261.40 263.40 Z"
		fill="#2d2324" fill-rule="nonzero" node-id="104" stroke="none" target-height="15.399994" target-width="10"
		target-x="251.4" target-y="248"></path>
	<path
		d="M 247.60 245.70 L 247.30 255.30 L 247.00 256.70 L 245.40 256.60 L 243.20 255.70 L 241.50 254.60 L 240.30 253.10 L 239.50 251.30 L 238.60 242.00 L 238.90 240.70 L 239.20 240.50 L 240.00 240.80 L 244.00 243.00 L 247.60 245.70 Z"
		fill="#2e2425" fill-rule="nonzero" node-id="106" stroke="none" target-height="16.200012" target-width="9"
		target-x="238.6" target-y="240.5"></path>
	<path
		d="M 271.10 266.80 L 268.50 266.20 L 265.50 265.00 L 264.90 263.50 L 264.90 254.10 L 268.80 255.10 L 269.80 255.70 L 270.30 256.60 L 271.10 266.80 Z"
		fill="#2e2526" fill-rule="nonzero" node-id="108" stroke="none" target-height="12.699982" target-width="6.200012"
		target-x="264.9" target-y="254.1"></path>
	<path
		d="M 239.90 266.90 L 239.70 268.00 L 239.20 268.40 L 238.10 268.60 L 236.70 268.20 L 235.70 267.60 L 235.10 266.50 L 234.90 265.00 L 235.10 263.30 L 235.60 262.90 L 237.70 263.20 L 239.40 264.50 L 239.90 266.90 Z"
		fill="#332a2b" fill-rule="nonzero" node-id="110" stroke="none" target-height="5.700012" target-width="5"
		target-x="234.9" target-y="262.9"></path>
	<path
		d="M 223.50 260.20 L 223.10 261.50 L 222.70 261.80 L 221.80 261.90 L 220.30 261.40 L 219.30 260.70 L 218.80 259.60 L 218.70 258.00 L 219.10 256.40 L 219.60 256.00 L 220.50 255.90 L 221.50 256.20 L 222.80 257.40 L 223.50 260.20 Z"
		fill="#332a2b" fill-rule="nonzero" node-id="112" stroke="none" target-height="6" target-width="4.800003"
		target-x="218.7" target-y="255.9"></path>
	<path
		d="M 207.30 253.10 L 207.20 254.80 L 206.80 255.30 L 206.00 255.40 L 204.60 255.00 L 203.60 254.30 L 202.90 253.30 L 202.70 251.80 L 202.70 250.30 L 203.00 249.80 L 203.90 249.60 L 205.40 249.90 L 207.00 251.20 L 207.30 253.10 Z"
		fill="#362c2d" fill-rule="nonzero" node-id="114" stroke="none" target-height="5.799988" target-width="4.600006"
		target-x="202.7" target-y="249.6"></path>
	<path
		d="M 199.40 249.60 L 199.30 251.10 L 199.00 251.60 L 198.30 251.70 L 196.00 250.70 L 195.20 249.30 L 195.10 247.30 L 195.50 246.40 L 198.50 247.30 L 199.40 248.50 L 199.40 249.60 Z"
		fill="#352c2d" fill-rule="nonzero" node-id="116" stroke="none" target-height="5.300003" target-width="4.299988"
		target-x="195.1" target-y="246.4"></path>
	<path
		d="M 227.10 260.50 L 227.60 260.00 L 228.50 260.00 L 229.80 260.30 L 230.70 260.90 L 231.20 261.80 L 231.40 264.50 L 231.10 264.90 L 230.30 265.00 L 227.80 264.10 L 227.10 262.50 L 227.10 260.50 Z"
		fill="#352c2d" fill-rule="nonzero" node-id="118" stroke="none" target-height="5" target-width="4.299988"
		target-x="227.1" target-y="260"></path>
	<path
		d="M 247.80 270.70 L 247.40 271.80 L 245.40 271.60 L 244.40 271.00 L 243.80 270.20 L 243.50 268.90 L 243.80 267.40 L 244.20 267.00 L 246.20 267.20 L 247.10 267.90 L 247.70 268.90 L 247.80 270.70 Z"
		fill="#352b2d" fill-rule="nonzero" node-id="120" stroke="none" target-height="4.799988" target-width="4.300003"
		target-x="243.5" target-y="267"></path>
	<path
		d="M 215.30 256.00 L 214.90 257.90 L 214.60 258.20 L 212.70 257.90 L 211.70 257.50 L 211.20 256.70 L 211.00 255.30 L 211.30 253.90 L 211.60 253.50 L 212.50 253.40 L 214.50 254.10 L 215.10 254.80 L 215.30 256.00 Z"
		fill="#352b2c" fill-rule="nonzero" node-id="122" stroke="none" target-height="4.8000183" target-width="4.300003"
		target-x="211" target-y="253.4"></path>
	<path
		d="M 191.00 246.40 L 190.70 248.00 L 188.80 247.60 L 188.20 246.80 L 187.60 244.10 L 188.40 243.40 L 189.90 243.80 L 191.00 245.30 L 191.00 246.40 Z"
		fill="#393031" fill-rule="nonzero" node-id="124" stroke="none" target-height="4.600006" target-width="3.399994"
		target-x="187.6" target-y="243.4"></path>
	<path
		d="M 147.20 268.50 L 151.40 272.70 L 155.40 278.60 L 156.00 280.40 L 156.10 282.20 L 155.60 284.20 L 155.00 284.80 L 153.20 285.30 L 150.10 285.20 L 143.90 282.70 L 138.80 279.40 L 133.40 274.70 L 129.20 268.90 L 127.70 264.80 L 128.00 262.40 L 129.20 261.30 L 131.70 260.90 L 134.10 261.00 L 139.00 262.90 L 141.40 264.20 L 145.10 266.60 L 147.20 268.50 Z"
		fill="none" node-id="126" stroke="#4d4c4c" stroke-linecap="butt" stroke-width="0.25" target-height="24.399994"
		target-width="28.40001" target-x="127.7" target-y="260.9"></path>
	<path
		d="M 74.30 225.10 L 67.60 219.80 L 66.90 219.80 L 66.20 221.70 L 66.10 223.60 L 66.30 224.60 L 66.90 225.50 L 69.20 227.40 L 72.90 230.10 L 81.10 235.00 L 80.90 232.50 L 79.40 229.40 L 74.30 225.10 Z"
		fill="#f4f4f5" fill-rule="nonzero" node-id="128" stroke="none" target-height="15.199997" target-width="15"
		target-x="66.1" target-y="219.8"></path>
	<path
		d="M 87.00 106.20 L 125.20 156.50 L 127.90 158.30 L 132.30 159.60 L 161.10 166.70 L 161.80 166.50 L 161.80 165.70 L 110.10 111.90 L 87.30 103.70 L 86.20 103.80 L 86.00 104.20 L 87.00 106.20 Z"
		fill="#f4f4f5" fill-rule="nonzero" node-id="130" stroke="none" target-height="63" target-width="75.8"
		target-x="86" target-y="103.7"></path>
	<path
		d="M 117.50 93.60 L 108.70 105.90 L 106.90 106.10 L 83.90 100.50 L 83.10 99.50 L 83.10 97.90 L 85.70 92.30 L 86.90 91.70 L 91.70 92.30 L 117.00 92.30 L 117.70 92.60 L 117.50 93.60 Z"
		fill="#f4f4f5" fill-rule="nonzero" node-id="132" stroke="none" target-height="14.400002" target-width="34.6"
		target-x="83.1" target-y="91.7"></path>
	<path
		d="M 121.80 94.00 L 112.70 106.40 L 112.30 107.70 L 112.70 108.40 L 163.20 161.80 L 163.90 162.30 L 165.10 162.20 L 168.80 159.30 L 173.10 155.20 L 178.90 149.00 L 180.50 145.90 L 180.70 144.40 L 180.40 143.70 L 179.60 142.60 L 170.10 133.80 L 135.90 103.30 L 127.20 96.50 L 123.70 94.30 L 122.30 93.80 L 121.80 94.00 Z"
		fill="#f4f4f5" fill-rule="nonzero" node-id="134" stroke="none" target-height="68.5" target-width="68.399994"
		target-x="112.3" target-y="93.8"></path>
</svg>