<?xml version="1.0" standalone="no"?>
<!DOCTYPE svg PUBLIC "-//W3C//DTD SVG 1.1//EN" "http://www.w3.org/Graphics/SVG/1.1/DTD/svg11.dtd"><svg height="516"
	node-id="1" sillyvg="true" template-height="516" template-width="516" version="1.1" viewBox="0 0 516 516"
	width="516" xmlns="http://www.w3.org/2000/svg" xmlns:xlink="http://www.w3.org/1999/xlink">
	<defs node-id="38">
		<linearGradient gradientUnits="objectBoundingBox" id="linear-gradient" node-id="5" spreadMethod="pad"
			x1="356.23" x2="356.23" y1="526.44" y2="341.2">
			<stop offset="0" stop-color="#f3cf8f"></stop>
			<stop offset="0.3" stop-color="#f3c585"></stop>
			<stop offset="0.8" stop-color="#f2aa6c"></stop>
			<stop offset="1" stop-color="#f29d60"></stop>
		</linearGradient>
		<linearGradient gradientUnits="objectBoundingBox" id="linear-gradient-2" node-id="10" spreadMethod="pad"
			x1="94.44" x2="283.33" y1="147.31" y2="40.06">
			<stop offset="0.55" stop-color="#fe3a44"></stop>
			<stop offset="0.96" stop-color="#e72a34"></stop>
			<stop offset="1" stop-color="#e52832"></stop>
		</linearGradient>
		<linearGradient gradientUnits="objectBoundingBox" id="linear-gradient-3" node-id="14" spreadMethod="pad"
			x1="193.62" x2="316.42" y1="140.36" y2="354.55">
			<stop offset="0" stop-color="#fe3a44"></stop>
			<stop offset="0.27" stop-color="#fcdada"></stop>
			<stop offset="0.4" stop-color="#fce6da"></stop>
			<stop offset="0.51" stop-color="#fce6da"></stop>
			<stop offset="0.62" stop-color="#fcdada"></stop>
			<stop offset="0.73" stop-color="#bcd3dd"></stop>
			<stop offset="1" stop-color="#13a2e4"></stop>
		</linearGradient>
	</defs>
	<path
		d="M 290.10 344.50 L 388.50 514.00 L 393.30 513.50 L 397.00 512.70 L 400.80 511.60 L 408.20 508.20 L 414.20 503.90 L 417.10 501.30 L 419.80 498.10 L 422.40 494.30 L 310.90 311.70 Z"
		fill="url(#linear-gradient)" fill-rule="nonzero" node-id="75" stroke="none" target-height="202.29999"
		target-width="132.29999" target-x="290.1" target-y="311.7"></path>
	<g node-id="116">
		<path
			d="M 372.80 413.10 L 310.90 311.70 L 290.10 344.50 L 339.10 428.90 L 346.50 422.90 L 354.60 418.20 L 363.40 414.90 L 372.80 413.10 Z"
			fill="#d19060" fill-opacity="0.5" fill-rule="nonzero" group-id="1" node-id="79" stroke="none"
			target-height="117.19998" target-width="82.69998" target-x="290.1" target-y="311.7"></path>
	</g>
	<path
		d="M 229.60 454.60 L 227.30 452.40 L 224.40 448.50 L 213.90 433.00 L 199.20 409.50 L 181.40 379.30 L 161.70 344.10 L 151.50 325.10 L 130.60 284.80 L 120.40 264.00 L 110.50 242.90 L 101.10 222.00 L 95.20 208.10 L 90.20 195.20 L 86.00 183.00 L 82.40 171.50 L 79.50 160.80 L 76.80 149.40 L 74.80 138.80 L 73.40 128.80 L 72.50 119.50 L 72.20 110.80 L 72.30 101.70 L 72.80 93.10 L 73.80 85.20 L 75.20 77.80 L 77.10 70.80 L 79.40 63.80 L 82.10 57.20 L 85.10 51.00 L 88.40 45.30 L 92.10 39.90 L 96.20 34.70 L 100.60 29.80 L 105.20 25.20 L 110.10 20.90 L 119.90 13.90 L 124.70 11.20 L 129.70 8.80 L 135.00 6.70 L 140.70 5.00 L 146.30 3.70 L 152.20 2.80 L 158.30 2.20 L 164.60 2.00 L 171.30 2.20 L 177.80 2.90 L 184.40 3.90 L 191.30 5.40 L 198.40 7.40 L 205.70 9.80 L 212.70 12.60 L 219.90 15.90 L 227.20 19.70 L 234.70 24.10 L 242.50 29.00 L 249.70 34.20 L 257.10 39.90 L 264.60 46.30 L 272.20 53.30 L 280.00 61.10 L 287.20 68.80 L 294.50 77.30 L 301.90 86.50 L 309.30 96.40 L 316.80 107.20 L 346.40 152.40 L 373.20 195.30 L 396.50 234.30 L 415.90 268.00 L 436.30 305.70 L 440.10 313.30 L 443.80 322.00 L 443.70 323.20 L 442.70 325.20 L 440.30 328.40 L 436.00 333.00 L 429.30 339.10 L 412.70 352.90 L 392.00 368.40 L 380.80 376.40 L 357.40 392.20 L 345.90 399.50 L 318.30 415.50 L 297.40 426.70 L 276.60 437.00 L 257.70 445.70 L 242.20 451.90 L 233.10 454.60 L 229.60 454.60 Z"
		fill="#fff5e6" fill-rule="nonzero" node-id="82" stroke="none" target-height="452.6" target-width="371.59998"
		target-x="72.2" target-y="2"></path>
	<path
		d="M 328.70 130.30 L 330.80 128.30 L 316.80 107.20 L 308.00 94.70 L 299.30 83.20 L 290.80 72.90 L 282.30 63.50 L 273.20 54.30 L 264.30 46.00 L 255.60 38.70 L 247.00 32.20 L 238.00 26.10 L 229.20 20.80 L 220.60 16.20 L 212.30 12.50 L 210.20 12.90 L 210.40 13.50 L 209.40 13.00 L 210.20 12.90 L 209.90 12.10 L 208.80 12.80 L 206.50 11.80 L 207.60 10.60 L 201.40 8.30 L 188.80 4.80 L 185.80 4.90 L 186.40 4.30 L 179.30 3.10 L 172.40 2.30 L 165.90 2.00 L 159.50 2.10 L 153.10 2.70 L 147.00 3.60 L 141.20 4.90 L 135.60 6.60 L 130.10 8.60 L 124.90 11.10 L 120.00 13.80 L 110.10 20.90 L 105.20 25.20 L 100.60 29.80 L 96.20 34.70 L 92.10 39.90 L 88.50 45.30 L 85.10 51.00 L 82.10 57.20 L 79.40 63.80 L 77.10 70.80 L 75.20 77.80 L 73.80 85.20 L 72.80 93.20 L 72.30 101.70 L 72.20 110.80 L 72.50 119.50 L 73.40 128.80 L 74.80 138.80 L 76.80 149.40 L 79.50 160.90 L 82.40 171.60 L 86.00 183.00 L 90.20 195.20 L 95.20 208.20 L 101.10 222.00 L 113.00 248.30 L 115.50 249.60 L 117.30 251.40 L 117.80 250.10 L 118.70 249.40 L 119.90 249.00 L 124.70 248.30 L 126.20 247.80 L 127.60 247.00 L 128.90 245.10 L 129.30 243.70 L 129.90 243.80 L 130.00 245.60 L 130.40 245.90 L 130.70 244.30 L 131.40 243.10 L 132.70 242.20 L 134.70 241.30 L 134.70 241.90 L 139.50 238.70 L 154.70 231.80 L 152.90 230.30 L 154.70 229.70 L 156.70 229.60 L 156.30 228.40 L 155.20 228.50 L 152.40 229.90 L 151.60 229.40 L 151.40 228.40 L 152.90 228.70 L 154.60 228.50 L 163.60 223.50 L 165.20 223.00 L 166.30 222.90 L 168.20 223.50 L 169.10 222.50 L 168.10 221.50 L 168.00 220.80 L 168.80 220.10 L 170.20 220.80 L 169.90 218.80 L 171.10 218.50 L 173.50 218.90 L 174.40 219.70 L 173.00 221.20 L 174.40 220.90 L 175.90 220.10 L 180.00 216.60 L 177.20 217.40 L 180.70 214.60 L 192.80 206.60 L 196.50 203.60 L 199.70 200.40 L 198.60 199.80 L 201.40 197.30 L 205.80 195.70 L 209.20 193.50 L 209.10 193.80 L 210.10 192.20 L 211.30 190.90 L 212.90 189.80 L 212.80 190.40 L 213.10 190.70 L 215.70 191.30 L 215.90 191.70 L 215.70 192.50 L 218.70 188.70 L 219.70 183.50 L 221.60 184.40 L 222.20 181.80 L 224.60 179.20 L 224.20 180.10 L 224.30 180.60 L 226.40 181.90 L 226.50 182.50 L 226.10 183.60 L 228.20 183.30 L 230.90 182.00 L 234.90 177.90 L 236.10 177.10 L 238.00 177.00 L 239.50 177.50 L 239.40 176.00 L 238.90 175.30 L 238.20 175.10 L 237.30 175.20 L 233.60 177.00 L 233.70 176.70 L 232.90 176.00 L 232.90 175.30 L 234.30 173.00 L 235.40 172.00 L 237.30 171.20 L 242.90 172.40 L 244.60 172.50 L 246.40 172.20 L 248.30 171.40 L 247.40 172.30 L 248.50 171.90 L 251.20 169.60 L 252.20 169.00 L 253.70 168.90 L 254.10 167.10 L 255.70 165.50 L 255.40 163.70 L 251.10 167.30 L 253.80 162.40 L 256.00 159.90 L 259.10 158.80 L 258.60 160.60 L 257.70 162.30 L 258.50 162.20 L 260.90 160.40 L 261.70 160.30 L 261.90 161.50 L 261.50 162.40 L 256.80 166.00 L 255.70 167.20 L 254.90 168.60 L 255.70 168.50 L 256.50 168.00 L 258.90 165.80 L 259.60 167.30 L 259.60 166.00 L 260.30 164.50 L 264.80 162.10 L 265.80 161.10 L 266.60 159.40 L 267.50 161.50 L 268.80 159.20 L 269.50 158.70 L 269.20 162.30 L 269.90 161.10 L 270.90 160.40 L 276.90 158.90 L 277.80 158.10 L 275.80 159.10 L 274.30 159.10 L 273.40 157.30 L 272.90 156.80 L 271.90 156.60 L 273.50 154.90 L 274.80 154.20 L 276.00 154.00 L 280.80 155.40 L 282.30 155.50 L 283.90 155.10 L 286.00 153.90 L 283.40 154.30 L 282.50 153.70 L 282.70 153.00 L 285.60 152.40 L 288.40 152.50 L 290.20 150.80 L 290.10 150.40 L 288.10 149.70 L 287.80 149.30 L 288.00 148.50 L 289.00 148.80 L 290.00 148.40 L 291.10 145.20 L 291.90 144.00 L 293.00 145.90 L 294.80 145.20 L 296.00 143.80 L 295.80 141.10 L 296.20 140.40 L 298.50 139.30 L 297.80 143.30 L 300.30 141.00 L 301.00 143.60 L 302.10 142.00 L 303.90 140.40 L 307.70 138.90 L 307.00 138.20 L 306.60 136.50 L 307.20 134.90 L 308.90 133.40 L 309.90 133.40 L 310.80 134.30 L 314.00 132.60 L 313.00 135.30 L 311.40 136.40 L 309.50 136.50 L 309.50 138.90 L 310.50 138.90 L 314.80 136.80 L 319.50 133.60 L 316.70 134.60 L 322.70 127.60 L 324.00 127.70 L 324.30 128.00 L 324.10 129.30 L 328.00 125.40 L 329.50 126.60 L 330.10 127.30 L 330.20 128.10 L 329.90 128.90 L 328.70 130.30 Z"
		fill="url(#linear-gradient-2)" fill-rule="nonzero" node-id="84" stroke="none" target-height="249.4"
		target-width="258.59998" target-x="72.2" target-y="2"></path>
	<path
		d="M 229.60 454.60 L 227.30 452.40 L 224.40 448.50 L 213.90 433.00 L 199.20 409.50 L 181.40 379.30 L 161.70 344.10 L 151.50 325.10 L 130.60 284.80 L 120.40 264.00 L 110.50 242.90 L 101.10 222.00 L 95.20 208.10 L 90.20 195.20 L 86.00 183.00 L 82.40 171.50 L 79.50 160.80 L 76.80 149.40 L 74.80 138.80 L 73.40 128.80 L 72.50 119.50 L 72.20 110.80 L 72.30 101.70 L 72.80 93.10 L 73.80 85.20 L 75.20 77.80 L 77.10 70.80 L 79.40 63.80 L 82.10 57.20 L 85.10 51.00 L 88.40 45.30 L 92.10 39.90 L 96.20 34.70 L 100.60 29.80 L 105.20 25.20 L 110.10 20.90 L 119.90 13.90 L 124.70 11.20 L 129.70 8.80 L 135.00 6.70 L 140.70 5.00 L 146.30 3.70 L 152.20 2.80 L 158.30 2.20 L 164.60 2.00 L 171.30 2.20 L 177.80 2.90 L 184.40 3.90 L 191.30 5.40 L 198.40 7.40 L 205.70 9.80 L 212.70 12.60 L 219.90 15.90 L 227.20 19.70 L 234.70 24.10 L 242.50 29.00 L 249.70 34.20 L 257.10 39.90 L 264.60 46.30 L 272.20 53.30 L 280.00 61.10 L 287.20 68.80 L 294.50 77.30 L 301.90 86.50 L 309.30 96.40 L 316.80 107.20 L 346.40 152.40 L 373.20 195.30 L 396.50 234.30 L 415.90 268.00 L 436.30 305.70 L 440.10 313.30 L 443.80 322.00 L 443.70 323.20 L 442.70 325.20 L 440.30 328.40 L 436.00 333.00 L 429.30 339.10 L 412.70 352.90 L 392.00 368.40 L 380.80 376.40 L 357.40 392.20 L 345.90 399.50 L 318.30 415.50 L 297.40 426.70 L 276.60 437.00 L 257.70 445.70 L 242.20 451.90 L 233.10 454.60 L 229.60 454.60 Z"
		fill="url(#linear-gradient-3)" fill-rule="nonzero" node-id="86" stroke="none" target-height="452.6"
		target-width="371.59998" target-x="72.2" target-y="2"></path>
	<g node-id="117">
		<path
			d="M 209.90 48.90 L 300.40 195.40 L 374.40 316.80 L 411.70 292.60 L 398.60 268.10 L 381.10 236.80 L 359.70 200.20 L 347.80 180.60 L 321.70 138.70 L 307.60 117.00 L 300.40 106.50 L 293.30 96.90 L 286.30 88.00 L 279.40 79.90 L 272.00 72.00 L 264.70 64.80 L 257.50 58.20 L 250.50 52.40 L 243.10 46.80 L 235.90 41.80 L 228.80 37.50 L 221.90 33.70 L 214.70 30.30 L 207.70 27.40 L 200.90 25.00 L 194.30 23.10 L 209.90 48.90 Z"
			fill="#ffffff" fill-opacity="0.2" fill-rule="nonzero" group-id="2" node-id="90" stroke="none"
			target-height="293.69998" target-width="217.40001" target-x="194.3" target-y="23.1"></path>
		<path
			d="M 233.00 151.80 L 192.70 87.00 L 172.70 54.50 L 153.20 21.60 L 143.50 24.30 L 134.20 28.40 L 129.90 30.90 L 125.70 33.70 L 120.50 37.80 L 115.70 42.20 L 111.10 46.90 L 136.10 100.00 L 151.20 130.90 L 182.20 192.30 L 230.00 283.80 L 278.60 374.80 L 312.00 355.30 L 345.00 335.30 L 289.30 243.40 L 233.00 151.80 Z"
			fill="#ffffff" fill-opacity="0.2" fill-rule="nonzero" group-id="2" node-id="92" stroke="none"
			target-height="353.19998" target-width="233.9" target-x="111.1" target-y="21.6"></path>
		<path
			d="M 239.50 366.80 L 189.40 272.60 L 164.70 225.40 L 124.50 146.10 L 93.60 82.10 L 92.00 88.50 L 90.80 95.40 L 89.90 102.70 L 89.40 110.50 L 89.30 118.90 L 89.70 126.90 L 90.50 135.50 L 91.80 144.60 L 93.70 154.40 L 96.10 164.80 L 102.10 185.00 L 106.00 196.10 L 115.90 220.50 L 123.80 237.70 L 132.40 255.40 L 150.80 290.70 L 169.90 324.80 L 188.50 356.50 L 219.10 406.90 L 251.50 389.30 L 239.50 366.80 Z"
			fill="#ffffff" fill-opacity="0.2" fill-rule="nonzero" group-id="2" node-id="94" stroke="none"
			target-height="324.8" target-width="162.2" target-x="89.3" target-y="82.1"></path>
	</g>
	<g node-id="118">
		<path
			d="M 239.70 27.20 L 249.60 38.60 L 259.20 50.30 L 268.30 62.40 L 277.10 74.70 L 302.00 112.60 L 314.70 132.90 L 327.10 153.30 L 339.40 174.70 L 351.70 197.20 L 360.60 214.10 L 378.10 249.90 L 386.60 268.80 L 394.70 287.60 L 402.70 307.20 L 410.40 327.60 L 417.90 348.70 L 431.90 336.80 L 437.40 331.50 L 441.00 327.60 L 442.90 324.80 L 443.80 323.10 L 443.90 322.00 L 440.10 313.30 L 436.30 305.70 L 415.90 268.00 L 385.50 215.70 L 360.40 174.50 L 332.10 130.20 L 316.90 107.20 L 309.00 96.00 L 301.30 85.70 L 293.70 76.20 L 286.10 67.60 L 278.60 59.60 L 270.50 51.70 L 262.60 44.50 L 254.80 38.10 L 247.20 32.30 L 239.70 27.20 Z"
			fill="#532b6a" fill-opacity="0.2" fill-rule="nonzero" group-id="3" node-id="99" stroke="none"
			target-height="321.5" target-width="204.2" target-x="239.7" target-y="27.2"></path>
	</g>
	<g node-id="119">
		<path
			d="M 362.70 336.80 L 357.20 344.50 L 351.60 351.80 L 345.70 358.80 L 339.50 365.30 L 333.00 371.40 L 326.00 377.10 L 314.80 384.70 L 308.70 388.10 L 302.30 391.30 L 294.90 394.30 L 287.60 396.80 L 280.30 398.80 L 272.90 400.30 L 265.40 401.20 L 258.00 401.80 L 250.40 401.90 L 242.80 401.60 L 235.00 400.90 L 227.20 399.80 L 213.00 396.50 L 198.80 391.80 L 185.20 385.80 L 201.60 413.40 L 220.80 443.40 L 228.30 453.50 L 229.60 454.60 L 233.10 454.50 L 242.20 451.90 L 249.70 449.10 L 267.00 441.50 L 297.40 426.60 L 328.10 410.00 L 345.90 399.50 L 357.40 392.10 L 380.80 376.30 L 402.90 360.40 L 421.90 345.50 L 436.00 332.90 L 440.30 328.30 L 442.70 325.20 L 443.70 323.20 L 443.90 321.90 L 439.50 312.00 L 435.10 303.40 L 420.90 276.90 L 401.10 242.00 L 389.00 221.60 L 389.70 231.60 L 390.00 241.60 L 389.70 251.50 L 389.10 261.40 L 387.90 271.20 L 386.10 281.00 L 383.80 290.60 L 380.90 300.20 L 378.20 307.60 L 375.00 315.00 L 371.40 322.30 L 367.30 329.60 L 362.70 336.80 Z"
			fill="#532b6a" fill-opacity="0.2" fill-rule="nonzero" group-id="4" node-id="104" stroke="none"
			target-height="233" target-width="258.7" target-x="185.2" target-y="221.6"></path>
	</g>
	<g node-id="120">
		<path
			d="M 125.70 33.70 L 120.50 37.80 L 115.70 42.20 L 111.10 46.90 L 136.10 100.00 L 154.90 138.40 L 174.10 176.60 L 193.70 214.60 L 223.50 271.40 L 253.70 328.10 L 233.50 284.50 L 203.00 220.90 L 119.30 49.30 L 153.20 21.60 L 148.30 22.80 L 138.80 26.20 L 129.90 30.90 L 125.70 33.70 Z"
			fill="#ffffff" fill-opacity="0.5" fill-rule="nonzero" group-id="5" node-id="109" stroke="none"
			target-height="306.5" target-width="142.6" target-x="111.1" target-y="21.6"></path>
	</g>
	<path
		d="M 93.60 82.10 L 92.00 88.50 L 90.80 95.40 L 89.90 102.70 L 89.40 110.50 L 89.30 118.90 L 89.70 126.90 L 90.50 135.50 L 91.80 144.60 L 93.70 154.40 L 96.10 164.80 L 98.80 174.60 L 106.00 196.10 L 115.90 220.50 L 123.20 236.40 L 139.30 268.90 L 156.60 301.20 L 182.70 346.80 L 198.90 373.80 L 149.80 276.40 L 135.50 247.00 L 122.60 219.20 L 116.90 206.20 L 108.30 184.30 L 105.70 176.10 L 102.60 164.30 L 100.30 153.50 L 98.60 143.60 L 97.30 133.70 L 96.70 124.60 L 96.50 116.20 L 96.80 107.80 L 97.60 100.10 L 98.80 93.00 L 93.60 82.10 Z"
		fill="#ffffff" fill-opacity="0.5" fill-rule="nonzero" group-id="6" node-id="114" stroke="none"
		target-height="291.69998" target-width="109.59999" target-x="89.3" target-y="82.1"></path>
</svg>